<?xml version="1.0" encoding="UTF-8"?><svg id="b" xmlns="http://www.w3.org/2000/svg" width="134.917" height="471.477" viewBox="0 0 134.917 471.477"><defs><style>.g{fill:#6dbf6b;}.h{fill:#211715;}.i{fill:#fff;}.j{fill:#5394cf;}.k{fill:#645d5c;}</style></defs><g id="c"><g id="d"><path class="i" d="M41.621,434.611c.31.41.699.765,1.131,1.031,1.26.776,2.798.94,4.278.966,5.967.104,11.39-2.277,15.02-5.186-.006-.922-.012-1.846-.017-2.743-6.222.754-13.517,1.009-19.538.853-.353,1.434-.811,2.843-1.371,4.209.124.307.294.6.497.87Z"/><path class="i" d="M74.357,431.922c-.222-.164-.438-.331-.647-.499.009-.922.013-1.843.018-2.735,5.921.61,13.372.855,19.512.719.35,1.479.819,2.929,1.396,4.335-.313.773-.912,1.46-1.628,1.901-1.26.776-2.798.94-4.278.966-5.622.098-10.761-2.01-14.372-4.686Z"/><path class="i" d="M97.707,51.472c.942-.85,2.339-1.261,3.644-1.066s2.494.983,3.092,2.056c.422.753.559,1.61.637,2.446.286,3.296-.364,6.655-1.858,9.658-.728,1.463-1.676,2.864-2.995,3.93-1.013.808-2.253,1.407-3.57,1.609,0,0-.221.034-.611.095-.293,1.096-.622,2.02-.784,2.511-.986,2.676-6.267,11.594-13.054,15.547-.003,2.851.28,5.667.771,8.471.437,2.491.3,4.718,3.763,5.969.229.083,2.154.843,2.672,1.071,0,0-1.487,16.99-23.857,16.99-22.667,0-20.951-17.195-20.951-17.195.424-.181,1.862-.783,2.091-.866,3.464-1.251,3.327-3.478,3.763-5.969.525-2.996.812-6.006.764-9.053-2.335-1.487-4.516-3.465-6.521-5.865-3.115-3.728-4.873-7.876-5.905-11.528-.724-.11-1.164-.178-1.164-.178-1.318-.202-2.558-.801-3.57-1.609-1.319-1.066-2.267-2.467-2.995-3.93-1.494-3.003-2.144-6.362-1.858-9.658.078-.836.214-1.693.637-2.446.598-1.073,1.786-1.861,3.092-2.056s2.702.216,3.644,1.066c0,0-1.693-25.38,29.418-25.38s31.705,25.38,31.705,25.38Z"/><path class="h" d="M41.367,422.49c-.041,4.479-1.114,8.919-3.184,12.921-.496.959-.248,2.172.718,2.736.897.525,2.238.245,2.736-.718,2.392-4.624,3.683-9.731,3.73-14.94.01-1.081-.926-2-2-2-1.093,0-1.99.915-2,2h0Z"/><path class="h" d="M60.002,423.53c.028,4.153.057,8.306.085,12.459.007,1.046.915,2.049,2,2,1.077-.048,2.008-.879,2-2-.028-4.153-.057-8.306-.085-12.459-.007-1.046-.915-2.049-2-2-1.077.048-2.008.879-2,2h0Z"/><path class="h" d="M90.392,422.49c.048,5.209,1.338,10.316,3.73,14.94.496.959,1.838,1.243,2.736.718.973-.569,1.216-1.774.718-2.736-2.07-4.002-3.143-8.441-3.184-12.921-.01-1.081-.912-2-2-2-1.077,0-2.01.915-2,2h0Z"/><path class="h" d="M71.757,423.53c-.028,4.153-.057,8.306-.085,12.459-.007,1.046.925,2.048,2,2,1.09-.049,1.992-.879,2-2,.028-4.153.057-8.306.085-12.459.007-1.046-.925-2.048-2-2-1.09.049-1.992.879-2,2h0Z"/><path class="i" d="M67.663,427.807c9.392,1.953,31.385,2.187,36.318.541.445-7.365,1.259-80.473,3.245-113.47,1.672-27.78,2.989-61.11,4.62-78.508-19.195-.292-69.636-.604-88.785-.915,1.651,17.269,3.488,51.404,5.175,79.423,1.986,32.997,2.8,106.105,3.245,113.47,4.933,1.645,24.116,1.761,35.557-.426"/><path class="h" d="M21.061,235.455c1.436,15.085,2.257,30.234,3.161,45.358.91,15.208,1.938,30.416,2.6,45.637.57,13.1.932,26.21,1.256,39.318.317,12.837.576,25.674.83,38.512.152,7.68.215,15.37.524,23.046.014.341.028.681.049,1.022.055.919.589,1.645,1.468,1.929,2.09.675,4.384.837,6.56,1.006,3.096.241,6.206.307,9.31.289,6.926-.039,13.934-.438,20.751-1.721,2.527-.476,1.457-4.332-1.063-3.857-6.463,1.217-13.122,1.541-19.687,1.578-3.011.017-6.028-.045-9.032-.268-2.084-.155-3.776-.239-5.774-.885l1.468,1.929c-.396-6.678-.361-13.4-.493-20.086-.249-12.522-.494-25.043-.79-37.564-.315-13.344-.669-26.688-1.2-40.025-.574-14.413-1.53-28.809-2.381-43.207-.942-15.95-1.824-31.914-3.181-47.836-.119-1.392-.243-2.784-.376-4.175-.102-1.075-.846-2-2-2-1.002,0-2.103.918-2,2h0Z"/><path class="h" d="M109.888,235.923c-1.441,15.164-2.061,30.414-2.85,45.622-.784,15.107-1.765,30.207-2.416,45.32-.563,13.072-.924,26.154-1.247,39.234-.315,12.771-.572,25.543-.824,38.315-.151,7.636-.214,15.282-.521,22.914-.014.341-.028.681-.049,1.022l1.468-1.929c-.621.2-1.264.325-1.908.429-.632.102-1.358.179-2.307.261-2.357.202-4.725.282-7.091.317-5.515.081-11.047-.088-16.543-.562-2.489-.215-4.96-.485-7.407-.986-2.513-.514-3.588,3.341-1.063,3.857,5.042,1.031,10.256,1.349,15.388,1.557,5.358.218,10.758.274,16.109-.135,1.949-.149,4.012-.278,5.884-.881.885-.285,1.414-1.014,1.468-1.929.394-6.637.359-13.317.491-19.962.246-12.399.489-24.799.781-37.197.313-13.315.665-26.631,1.189-39.94.565-14.341,1.503-28.665,2.249-42.997.834-16.034,1.518-32.092,2.826-48.097.115-1.412.239-2.823.373-4.233.102-1.077-.992-2-2-2-1.167,0-1.897.92-2,2h0Z"/><path class="h" d="M65.879,284.238c-.537,5.888-.468,11.849-.464,17.755.005,7.105.111,14.209.176,21.313.074,8.029.021,16.06.005,24.09-.022,11.008-.046,22.017-.062,33.025-.016,10.508-.029,21.016-.013,31.523.005,3.597.012,7.195.039,10.792.012,1.634-.053,3.301.082,4.932.069.836.313,1.328,1.012,1.866.857.659,2.24.131,2.736-.718.603-1.032.141-2.076-.718-2.736h-.002c.239.238.478.477.718.716.118.219.245,1.377.242.66,0-.266-.018-.533-.024-.799-.021-.935-.029-1.87-.038-2.805-.03-3.288-.037-6.575-.044-9.863-.021-10.167-.009-20.334.005-30.501.015-11.076.038-22.151.061-33.227.016-7.719.066-15.439.029-23.158-.063-13.175-.603-26.398.037-39.565.054-1.101.122-2.202.222-3.3.098-1.077-.99-2-2-2-1.164,0-1.901.92-2,2h0Z"/><path class="k" d="M20.762,465.011c-.116-.152-.226-.308-.329-.47-1.371-2.15-1.372-4.955-.583-7.38s2.281-4.55,3.787-6.608c3.655-4.991,7.522-9.827,11.587-14.49,1.587-1.82,3.38-3.717,5.753-4.164-.383,1.43.513,2.966,1.773,3.742s2.798.94,4.278.966c6.922.12,13.112-3.102,16.619-6.614-.027,4.999.022,6.663,0,11.664-.006,1.218-.016,2.465-.438,3.607-1.028,2.78-4.076,4.119-6.521,5.792-6.363,4.354-9.714,12.299-16.382,16.171-4.779,2.775-10.948,2.996-15.914.57-1.383-.676-2.701-1.571-3.63-2.787Z"/><path class="k" d="M114.996,465.011c.116-.152.226-.308.329-.47,1.371-2.15,1.372-4.955.583-7.38-.789-2.425-2.281-4.55-3.787-6.608-3.655-4.991-7.522-9.827-11.587-14.49-1.587-1.82-3.38-3.717-5.753-4.164.383,1.43-.513,2.966-1.773,3.742s-2.798.94-4.278.966c-6.922.12-13.112-3.102-16.619-6.614.027,4.999-.022,6.663,0,11.664.006,1.218.016,2.465.438,3.607,1.028,2.78,4.076,4.119,6.521,5.792,6.363,4.354,9.714,12.299,16.382,16.171,4.779,2.775,10.948,2.996,15.914.57,1.383-.676,2.701-1.571,3.63-2.787Z"/><path class="h" d="M22.489,464.002c-1.764-2.411-1.296-5.449-.01-7.976,1.514-2.974,3.717-5.634,5.739-8.271,2.116-2.76,4.308-5.462,6.559-8.112,1.828-2.153,3.807-5.161,6.732-5.814l-2.46-2.46c-.571,2.943,1.158,5.499,3.883,6.568,2.632,1.032,5.78.761,8.511.323,5.056-.81,9.966-3.258,13.62-6.851l-3.414-1.414c-.022,4.261.165,8.554-.021,12.81-.093,2.138-1.179,3.407-2.893,4.565-1.759,1.189-3.576,2.23-5.202,3.609-6.047,5.129-9.633,13.856-17.855,16.002-4.468,1.166-10.438.409-13.502-3.383-.679-.841-2.122-.707-2.828,0-.831.831-.681,1.985,0,2.828,3.11,3.849,8.921,5.341,13.677,5.006,5.042-.355,9.414-2.628,12.98-6.144,3.201-3.157,5.678-6.959,8.876-10.119,1.601-1.581,3.382-2.737,5.264-3.947,1.842-1.184,3.714-2.58,4.659-4.621,1.259-2.721.856-6.042.849-8.965-.006-2.548-.017-5.095-.004-7.642.009-1.746-2.187-2.621-3.414-1.414-2.595,2.552-5.893,4.34-9.397,5.293-2.03.552-4.109.809-6.213.725-1.137-.045-4.061-.4-3.718-2.166.295-1.521-.904-2.807-2.46-2.46-3.578.798-5.931,3.833-8.189,6.48-2.685,3.147-5.274,6.373-7.782,9.662-4.04,5.297-10.39,13.142-5.439,19.907.637.87,1.736,1.303,2.736.718.859-.502,1.359-1.86.718-2.736Z"/><path class="h" d="M116.723,466.021c4.95-6.764-1.399-14.61-5.439-19.907-2.509-3.289-5.098-6.515-7.782-9.662-2.258-2.648-4.61-5.682-8.189-6.48-1.556-.347-2.755.94-2.46,2.46.343,1.766-2.586,2.12-3.718,2.166-2.105.084-4.183-.172-6.213-.725-3.503-.953-6.802-2.741-9.397-5.293-1.226-1.206-3.423-.333-3.414,1.414.012,2.269.006,4.537-.002,6.805-.008,2.53-.211,5.171.189,7.675.812,5.083,5.969,6.587,9.377,9.571,3.39,2.968,5.897,6.763,8.938,10.058,3.234,3.503,7.199,6.272,11.985,7.069,5.371.895,12.207-.283,15.814-4.747.678-.84.821-2.008,0-2.828-.702-.702-2.146-.845-2.828,0-2.682,3.32-7.738,4.319-11.787,3.739-4.286-.615-7.624-3.079-10.478-6.196-2.743-2.995-5.056-6.374-8.004-9.183-1.496-1.426-3.158-2.608-4.906-3.702-1.437-.899-3.228-1.881-3.929-3.522-.547-1.282-.367-2.864-.371-4.221-.003-1.183-.002-2.366.002-3.549.007-2.323.014-4.646.002-6.97l-3.414,1.414c3.654,3.593,8.564,6.041,13.62,6.851,2.665.427,5.737.699,8.324-.252,2.812-1.034,4.658-3.608,4.07-6.639l-2.46,2.46c2.863.638,4.786,3.527,6.578,5.633,2.305,2.709,4.549,5.471,6.714,8.294,1.98,2.583,4.13,5.187,5.642,8.083,1.343,2.572,1.903,5.682.086,8.164-.638.872-.147,2.231.718,2.736,1.014.593,2.097.157,2.736-.718Z"/><path class="h" d="M49.228,88.986c-.036,1.858-.165,3.721-.431,5.562-.198,1.373-.358,2.805-.695,4.153-.031.125-.065.25-.103.373-.017.056-.159.47-.055.193.103-.274-.061.123-.09.178-.073.138-.158.265-.24.398.142-.229.109-.117-.039.034-.099.101-.2.199-.303.297-.333.315.25-.103-.187.129-.15.08-.292.175-.444.254-.337.176-.756.322-1.218.513-.61.252-1.219.508-1.826.767-.994.423-1.214,1.888-.718,2.736.602,1.028,1.739,1.143,2.736.718.251-.107.161-.068-.039.016.149-.062.297-.125.446-.187.291-.121.581-.243.873-.361.688-.279,1.396-.52,2.038-.898,1.455-.858,2.465-2.183,2.944-3.798.409-1.378.547-2.897.756-4.315.331-2.243.55-4.495.594-6.763.021-1.081-.934-2-2-2-1.102,0-1.979.916-2,2h0Z"/><path class="h" d="M80.212,88.986c.047,2.393.285,4.771.65,7.135.218,1.412.329,2.956.82,4.307.607,1.671,1.776,2.967,3.391,3.729.614.29,1.26.515,1.891.764.322.127.644.255.965.385.152.061.303.124.455.185.487.195-.238-.105.02.007.99.429,2.145.293,2.736-.718.494-.845.279-2.305-.718-2.736-1.038-.45-2.092-.872-3.15-1.272-.257-.097-.501-.22-.834-.415-.11-.064-.367-.246-.136-.067-.135-.105-.264-.227-.382-.35-.04-.041-.319-.395-.157-.17.157.218-.115-.206-.142-.255-.062-.112-.118-.226-.171-.343.207.457.015-.012-.011-.096-.398-1.28-.518-2.696-.722-4.017-.31-2.009-.468-4.04-.507-6.072-.021-1.08-.904-2-2-2-1.068,0-2.021.915-2,2h0Z"/><path class="g" d="M4.926,141.053c.841-5.894,1.754-11.993,4.816-16.975,2.859-4.651,7.328-7.875,11.878-10.574,6.402-3.798,13.21-6.811,20.249-8.962l2.544-.777c-.045-.734-.09-1.465-.09-1.465-.045-.736,3.133-6.592,4.163-9.253.069-.177.16-.377.342-.431.199-.059.396.086.554.221,1.763,1.514,11.437,9.395,12.475,10.666.357,1.202.974,2.79,2.011,6.049.837,1.984,2.339,5.681,3.144,7.415,1.157-2.425,2.664-6.005,3.86-8.885.578-1.76,1.043-3.732,1.295-4.579,1.038-1.271,10.713-9.153,12.475-10.666.158-.135.354-.28.554-.221.182.054.274.253.342.431,1.03,2.661,4.208,8.517,4.163,9.253l-.077,1.253c1.618.495,3.235.989,3.235.989,7.039,2.151,13.847,5.165,20.249,8.962,4.55,2.699,9.019,5.923,11.878,10.574,3.062,4.981,3.975,11.081,4.816,16.975"/><path class="h" d="M68.74,115.957c-1.193-2.596-2.395-5.267-3.279-7.983-.414-1.272-.855-2.535-1.285-3.802-.296-.873-.518-1.69-1.172-2.372-2.888-3.014-6.407-5.552-9.614-8.213-1.34-1.112-3.446-3.592-5.332-2.799-1.335.561-1.663,2.158-2.204,3.318-.555,1.19-1.137,2.366-1.71,3.548-.708,1.461-2.216,3.623-1.707,5.329.558,1.869,1.925,3.685,2.931,5.322.872,1.418,1.772,2.82,2.711,4.195.84,1.231,1.693,2.728,2.809,3.716.832.737,2.086.87,3.059.327.94-.525,1.322-1.59,1.79-2.504.938-1.829,1.885-3.654,2.847-5.471,1.204-2.274-2.247-4.297-3.454-2.019-.623,1.176-1.241,2.354-1.852,3.537-.271.524-.541,1.049-.81,1.573-.125.243-.249.486-.373.728-.008.017-.515.862-.284.756l1.009-.273.014.003.883.514c-.849-.706-1.47-1.865-2.09-2.769-.76-1.108-1.493-2.234-2.207-3.371-1.077-1.714-2.12-3.45-3.064-5.24-.052-.099-.095-.203-.148-.301-.187-.346.106.426.064.15.106.692-.124,1.133.142.371.008-.023.212-.514.079-.202.089-.21.186-.417.282-.624.226-.491.46-.978.695-1.464.528-1.094,1.067-2.184,1.588-3.282.221-.467.441-.935.651-1.407.121-.27.237-.542.353-.815.064-.151.128-.303.191-.454.116-.291.113-.274-.011.051l-1.414.586.292.038-1.009-.273c-.183-.128.233.191.295.243.182.152.363.304.544.455.505.421,1.012.841,1.518,1.261,1.338,1.11,2.675,2.219,4.008,3.335,1.978,1.657,4.289,3.263,5.966,5.242l-.514-.883c1.441,4.764,3.278,9.42,5.357,13.942.451.981,1.869,1.225,2.736.718,1.008-.589,1.17-1.751.718-2.736h0Z"/><path class="j" d="M113.549,230.57c-.44,20.52,7.746,106.152,7.727,126.451-13.237,1.442-91.903,1.442-106.484-.657,0-19.983,6.561-104.274,6.121-124.794l2.518-91.315c-.729-10.682-.618-19.084-.407-28.06.014-.612.041-1.256.363-1.776.372-.602,1.061-.919,1.71-1.201,5.508-2.4,7.828-3.854,13.494-5.965,1.433,6.082,4.47,22.491,5.044,23.319.888,1.28,33.672,1.209,47.679,0,.575-.828,4.704-16.529,5.65-23.093,5.667,2.111,7.379,3.422,12.887,5.822.649.283,1.338.599,1.71,1.201.322.521.348,1.165.363,1.776.211,8.976.324,17.296-.405,27.978l2.031,90.315Z"/><path class="h" d="M75.44,108.567c1.026,1.939,2.035,3.886,3.035,5.838.444.867.814,1.729,1.719,2.191,1.138.581,2.394.212,3.243-.671,1.187-1.236,2.135-2.856,3.082-4.278.968-1.453,1.898-2.93,2.795-4.428.989-1.652,2.85-3.916,2.193-5.953-.905-2.806-2.569-5.411-3.765-8.1-.273-.615-.459-1.344-1.025-1.882-.969-.922-2.289-.793-3.287-.02-.71.55-1.386,1.151-2.077,1.725-2.164,1.797-4.333,3.589-6.479,5.408-.971.823-1.942,1.649-2.889,2.5-.707.636-1.47,1.248-1.777,2.179-.613,1.86-.967,3.763-1.726,5.581-.815,1.951-1.64,3.898-2.513,5.823-.518,1.143-.957,2.068-.957,3.309v9.688c0,2.574,4,2.578,4,0v-10.513l-.273,1.009c1.107-2.336,2.114-4.718,3.116-7.1.945-2.245,1.568-4.506,2.24-6.841l-.514.883c1.678-1.979,3.987-3.585,5.966-5.242,1.302-1.09,2.609-2.174,3.915-3.259.502-.417,1.005-.833,1.506-1.251.212-.177.423-.354.635-.53.081-.067.482-.375.31-.254l-1.009.273.292-.038-1.414-.586c-.107-.282-.123-.328-.046-.138.08.196.162.392.246.586.101.237.202.474.307.709.22.495.45.985.682,1.475.524,1.104,1.066,2.2,1.597,3.301.226.468.451.937.669,1.409.186.403.308.67.358.811.262.738.053.458.157-.323-.036.268.195-.416.079-.183-.062.124-.117.251-.183.373-.96,1.784-1.99,3.524-3.069,5.239-.68,1.082-1.377,2.153-2.098,3.208-.644.942-1.29,2.156-2.173,2.891l.883-.514.014-.003,1.009.273c.308.142-.135-.463-.188-.568-.126-.245-.251-.491-.377-.736-.3-.585-.6-1.17-.902-1.754-.611-1.182-1.229-2.36-1.852-3.537-1.205-2.276-4.659-.257-3.454,2.019h0Z"/><path class="h" d="M111.549,230.57c.39,15.731,1.749,31.463,2.86,47.154,1.371,19.365,2.835,38.727,3.981,58.107.417,7.049.887,14.124.886,21.189l2-2c-4.702.506-9.473.553-14.197.673-7.775.197-15.553.278-23.33.317-17.061.085-34.136.006-51.189-.552-3.546-.116-7.093-.255-10.635-.467-1.346-.081-2.691-.172-4.034-.288-.547-.047-1.094-.099-1.64-.158-.222-.024-.444-.051-.666-.076-.104-.012-.207-.027-.31-.039-.364-.043.566.079.048.006l1.468,1.929c.008-14.924,1.017-29.88,1.783-44.778.995-19.362,2.095-38.717,3.17-58.075.406-7.313.824-14.625,1.168-21.941.121-2.573-3.879-2.567-4,0-.722,15.357-1.661,30.704-2.511,46.054-1.066,19.235-2.136,38.472-2.967,57.719-.302,7-.639,14.013-.643,21.021,0,.784.615,1.807,1.468,1.929,5.076.723,10.243.87,15.36,1.063,7.882.298,15.77.445,23.657.544,17.048.215,34.108.227,51.155-.143,5.6-.122,11.268-.135,16.844-.735,1.076-.116,2-.823,2-2,.001-6.08-.371-12.166-.714-18.233-.507-8.951-1.11-17.896-1.729-26.84-1.353-19.563-2.836-39.118-4.097-58.687-.487-7.555-.999-15.12-1.186-22.69-.064-2.569-4.064-2.579-4,0h0Z"/><path class="i" d="M98.496,143.816c-1.103,0-19.214.193-20.89.193,0,1.859.211,9.227.211,10.952,6.6.035,17.996.141,20.679.126.09-2.525.013-10.209,0-11.272Z"/><path class="h" d="M98.496,141.816c-5.908.007-11.816.115-17.723.169-1.055.01-2.111.023-3.166.024-1.08,0-2.002.916-2,2,.007,3.651.203,7.301.211,10.952.002,1.085.915,1.994,2,2,6.892.037,13.787.159,20.679.126,1.108-.005,1.964-.913,2-2,.125-3.752.047-7.519,0-11.272-.032-2.572-4.033-2.579-4,0,.047,3.753.126,7.52,0,11.272l2-2c-6.892.033-13.787-.089-20.679-.126l2,2c-.008-3.651-.204-7.301-.211-10.952l-2,2c6.006-.005,12.013-.112,18.019-.169.957-.009,1.914-.023,2.87-.024,2.574-.003,2.578-4.003,0-4Z"/><g id="e"><path class="i" d="M92.613,248.151c-.7,1.105-1.455,2.175-2.257,3.218-1.261,1.639-3.156,4.378-5.683,7.066-3.821,4.063-8.188,8.075-9.836,9.448-1.024.853-2.493,1.808-3.71,2.377-1.851.865-4.531-1.011-4.195-1.942-.784.873-4.133,1.4-5.778.556-2.083-1.07-1.016-3.697-1-3.778-1.345.788-2.897-.063-3.889-.778-.982-.707-1.759-2.19-.667-4.889.432-1.067,3.767-3.707,4.337-4.33.776-.849,2.368-2.438,4.143-4.151-.947-1.614-1.817-3.096-1.817-3.096-.415-2.035.587-3.908,1.756-5.185,1.37-1.497,4.219-4.041,6.167-4.591,3.225-.912,5.948-1.402,8.811-2.63l1.306-.756,14,10.889-1.689,2.574Z"/><path class="i" d="M52.895,234.836c2.382,1.406,3.504,1.629,6.228,2.329s4.983,1.098,6.217,3.449c0,0,2.23,3.386-.296,10.222-5.037,13.63-13.356,8.459-13.356,8.459-2.465-1.541-4.204-3.868-5.883-6.139-1.8-2.434-3.607-4.88-4.972-7.545"/><path class="h" d="M78.464,233.516c-2.116.892-4.331,1.456-6.55,2.026-2.047.526-3.839,1.102-5.553,2.373-3.403,2.524-6.83,5.849-6.028,10.468.185,1.065,1.491,1.663,2.46,1.397,1.125-.309,1.582-1.392,1.397-2.46-.239-1.38.67-2.651,1.558-3.575,1.052-1.094,2.191-2.119,3.416-2.927.311-.205.63-.4.961-.572.042-.022.509-.235.309-.155s.241-.074.282-.087c.982-.304,1.991-.534,2.986-.79,1.978-.508,3.94-1.046,5.825-1.841.995-.419,1.71-1.322,1.397-2.46-.258-.937-1.458-1.819-2.46-1.397h0Z"/><path class="h" d="M68.672,243.958c-4.029,3.516-7.61,7.508-11.607,11.043-2.323,2.054-4.394,4.215-3.925,7.61.497,3.6,4.826,5.723,8.024,4.211l-2.938-2.259c-.705,2.24-.325,4.825,1.919,6.036,2.298,1.241,6.264.967,8.201-.868l-3.343-1.946c-.654,3.375,3.929,5.416,6.655,4.402,2.914-1.084,5.316-3.459,7.557-5.538,5.667-5.258,10.938-10.963,15.125-17.49,1.394-2.173-2.067-4.181-3.454-2.019-3.334,5.197-7.414,9.842-11.827,14.139-1.781,1.734-3.58,3.478-5.493,5.068-.873.726-2.077,1.734-3.183,2.056-.317.092-.567.086-.899-.033-.175-.063-.365-.257-.547-.301l-.183-.173c.183.268.218.586.107.952.372-1.923-1.828-3.381-3.343-1.946.218-.206-.215.088-.318.125-.314.114-.667.186-.998.229-.633.083-1.428.123-2.038-.111-.63-.242-.265-.935-.081-1.519.565-1.797-1.46-2.957-2.938-2.259-.622.294-1.869-.689-1.999-1.033-.123-.328-.087-.753-.017-1.125.099-.526.279-.968.415-1.132,1.165-1.408,2.722-2.441,3.981-3.755,3.177-3.317,6.515-6.517,9.976-9.537,1.943-1.696-.896-4.515-2.828-2.828h0Z"/><path class="h" d="M71.417,249.569c-2.612,2.705-5.051,5.57-7.719,8.224-.672.668-1.352,1.338-2.09,1.933-.818.66-.738,2.151,0,2.828.869.797,1.956.704,2.828,0,1.468-1.184,2.768-2.597,4.065-3.96,1.472-1.546,2.914-3.12,4.355-4.695.46-.503.915-1.012,1.389-1.502.727-.753.806-2.089,0-2.828-.787-.722-2.052-.804-2.828,0h0Z"/><path class="h" d="M76.044,253.416c-.122.166.411-.508.151-.197-.076.091-.15.182-.226.273-.203.24-.411.477-.619.712-.589.664-1.189,1.319-1.793,1.968-1.442,1.55-2.911,3.078-4.436,4.546-.69.665-1.391,1.324-2.139,1.924-.82.657-.736,2.152,0,2.828.87.799,1.954.701,2.828,0,1.481-1.188,2.82-2.566,4.146-3.922,1.402-1.434,2.779-2.895,4.113-4.393.496-.557.989-1.118,1.43-1.721.62-.847.171-2.267-.718-2.736-1.041-.55-2.075-.187-2.736.718h0Z"/><path class="h" d="M51.885,236.563c2.207,1.292,4.522,1.977,6.982,2.601.557.141,1.116.277,1.67.433.273.077.545.158.813.249.13.044.258.092.387.138.103.037.421.214.042.013.231.123.468.227.693.363.088.054.173.112.26.168.408.26-.266-.271.084.068.171.165.327.347.496.512.144.14-.139-.253.033.062.084.154.182.3.267.454.501.92,1.847,1.291,2.736.718.933-.601,1.254-1.753.718-2.736-1.35-2.476-3.819-3.456-6.414-4.116-1.239-.315-2.49-.601-3.712-.979-.252-.078-.503-.161-.751-.252-.123-.045-.246-.102-.371-.142-.221-.072.299.141-.049-.022-.639-.299-1.257-.628-1.866-.984-.904-.529-2.232-.237-2.736.718s-.247,2.172.718,2.736h0Z"/><path class="h" d="M39.105,246.621c1.458,2.815,3.353,5.365,5.238,7.904,1.826,2.46,3.721,4.829,6.335,6.497.911.581,2.206.189,2.736-.718.565-.966.195-2.154-.718-2.736-2.07-1.321-3.709-3.452-5.166-5.421-1.793-2.424-3.582-4.861-4.972-7.545-.497-.959-1.838-1.243-2.736-.718-.973.569-1.216,1.774-.718,2.736h0Z"/><path class="h" d="M57.098,246.379c.638.344,1.288.653,1.967.91.528.2,1.066.373,1.595.573.266.083.532.095.798.036.266-.012.514-.091.744-.237.415-.243.811-.718.919-1.195.117-.512.091-1.087-.202-1.541l-.313-.405c-.25-.248-.544-.419-.883-.514-.623-.235-1.263-.429-1.878-.686l.478.202c-.413-.175-.811-.383-1.206-.596-.467-.252-1.023-.344-1.541-.202-.464.128-.967.486-1.195.919-.245.464-.368,1.026-.202,1.541.157.486.457.946.919,1.195h0Z"/></g><path class="g" d="M129.804,141.053c2.939,20.597,4.24,39.726,1.791,53.687-3.286,18.734-21.778,37.556-34.222,52.889-6.092-4.808-13.333-10.556-18.444-15.667,7.395-8.87,29.896-36.258,31.022-44.494,1.285-10.967-.29-31.263,1.568-47.213"/><path class="g" d="M4.926,141.053c-2.939,20.597-4.003,40.17-1.553,54.131,3.286,18.734,17.778,36.444,32.444,53.111,6.092-4.808,13-11.889,18.111-16.556-5.111-6.889-28.023-36.036-29.149-44.272-1.285-10.967.509-31.263-1.349-47.213"/><path class="h" d="M110.927,114.549c4.085,2.342,8.159,4.994,11.096,8.748,3.085,3.944,4.326,8.899,5.159,13.743,1.854,10.772,3.012,21.773,3.512,32.691.406,8.876.581,18.261-1.547,26.954-2.215,9.046-7.386,17.165-12.832,24.595-6.348,8.662-13.588,16.61-20.353,24.938h2.828c-6.328-4.99-12.729-9.978-18.45-15.67v2.828c8.708-10.44,17.377-21.05,24.91-32.38,2.81-4.226,6.209-8.984,6.768-14.165.797-7.392.9-14.877,1.065-22.304.18-8.091.201-16.186.433-24.275.074-2.575-3.926-2.573-4,0-.42,14.646-.089,29.348-1.257,43.965-.052.647-.108,1.294-.172,1.941-.033.333-.065.666-.105.997-.046.381.077-.387-.002.022-.02.104-.037.208-.062.31-.099.393-.205.781-.336,1.165-.079.23-.167.456-.253.683-.035.092-.182.444-.029.083-.059.14-.12.279-.183.416-1.143,2.503-2.566,4.872-4.046,7.188-3.858,6.038-8.177,11.789-12.572,17.442-4.229,5.44-8.574,10.79-12.987,16.082-.691.828-.822,2.01,0,2.828,5.721,5.692,12.122,10.68,18.45,15.67.779.614,2.086.915,2.828,0,6.274-7.724,12.919-15.14,18.961-23.053,5.938-7.777,11.551-16.183,14.51-25.595,2.781-8.847,2.824-18.659,2.541-27.842-.351-11.377-1.671-22.73-3.35-33.98-.865-5.795-2.069-11.819-5.527-16.69-3.318-4.675-8.065-7.972-12.98-10.79-2.237-1.282-4.254,2.172-2.019,3.454h0Z"/><path class="h" d="M97.078,103.984c-1.758-.637-3.531-1.235-5.32-1.78-1.001-.305-2.225.363-2.46,1.397-.246,1.081.325,2.134,1.397,2.46,1.789.545,3.562,1.143,5.32,1.78.465.168,1.127.041,1.541-.202s.811-.718.919-1.195c.117-.512.091-1.087-.202-1.541-.295-.457-.683-.734-1.195-.919h0Z"/><path class="h" d="M21.427,140.252c.09,7.401.102,14.802.223,22.203.128,7.848.219,15.743.973,23.561.501,5.195,3.338,9.693,6.057,14.038,3.842,6.139,8.078,12.033,12.371,17.862,3.668,4.982,7.462,9.869,11.149,14.836l.313-2.424c-6.034,5.517-11.698,11.457-18.11,16.55h2.828c-6.844-7.776-13.614-15.67-19.432-24.257-5.302-7.826-9.933-16.327-12.022-25.617-1.931-8.586-1.956-17.646-1.646-26.397.375-10.581,1.504-21.156,3.105-31.618.815-5.328,1.914-10.802,5.141-15.25,2.924-4.031,7.337-6.953,11.65-9.309,2.26-1.235.243-4.69-2.019-3.454-4.086,2.232-8.143,4.964-11.258,8.458-3.429,3.846-5.377,8.544-6.475,13.534-1.168,5.311-1.767,10.783-2.41,16.178-.655,5.492-1.176,11.002-1.5,16.524-.561,9.547-.615,19.216.859,28.688,1.497,9.616,5.667,18.564,10.811,26.749,6.448,10.259,14.38,19.525,22.368,28.601.771.876,2.027.636,2.828,0,6.412-5.093,12.076-11.033,18.11-16.55.592-.542.817-1.744.313-2.424-7.435-10.014-15.16-19.813-21.972-30.275-1.674-2.572-3.305-5.182-4.747-7.892-.277-.52-.546-1.044-.803-1.574-.139-.287-.275-.575-.407-.866-.05-.111-.099-.222-.148-.333-.176-.397.101.262-.07-.165-.32-.802-.601-1.613-.765-2.462-.057-.293.005.048.011.091-.025-.183-.041-.368-.06-.552-.037-.349-.071-.698-.103-1.047-.075-.808-.139-1.616-.197-2.425-.129-1.805-.227-3.613-.31-5.42-.188-4.118-.297-8.239-.379-12.36-.167-8.4-.175-16.802-.277-25.202-.031-2.572-4.031-2.579-4,0h0Z"/><path class="h" d="M41.335,102.614c-.936.282-1.866.582-2.79.9-.495.17-.925.457-1.195.919-.146.23-.225.477-.237.744-.06.266-.048.532.036.798.157.484.457.951.919,1.195.459.243,1.033.376,1.541.202.924-.318,1.854-.618,2.79-.9.489-.147.935-.474,1.195-.919.146-.23.225-.477.237-.744.06-.266.048-.532-.036-.798-.157-.484-.457-.951-.919-1.195-.47-.248-1.019-.359-1.541-.202h0Z"/><path class="h" d="M113.519,140.255c-.103-8.455.477-16.896.441-25.349-.008-1.874.262-4.087-.882-5.693-1.159-1.626-3.603-2.238-5.335-3.063-3.391-1.617-6.723-3.276-10.246-4.6-.926-.348-2.313.394-2.46,1.397-.671,4.565-1.802,9.078-2.927,13.548-.53,2.107-1.078,4.209-1.671,6.299-.201.708-.404,1.417-.63,2.118-.074.229-.161.455-.231.685-.161.53.207-.351.01-.036l1.727-.991c-11.115.948-22.355,1.024-33.503.913-4.112-.041-8.241-.088-12.337-.483-.607-.058.296.08-.303-.041-.194-.039-.402-.102-.597-.124-.403-.045.194.108.313.203.207.166.652.553.598.83.014-.074-.082-.234-.101-.307-.456-1.756-.843-3.526-1.215-5.303-1.224-5.843-2.287-11.726-3.649-17.539-.231-.985-1.474-1.767-2.46-1.397-3.685,1.383-7.216,3.067-10.781,4.727-1.761.82-4.236,1.436-5.408,3.081-1.143,1.604-.872,3.825-.889,5.699-.075,8.477.369,16.95.449,25.426.024,2.573,4.024,2.579,4,0-.073-7.807-.448-15.609-.456-23.416,0-.872.003-1.743.014-2.615.008-.657-.201-1.99.065-2.6.247-.567,1.378-.821,1.919-1.061.838-.372,1.672-.754,2.503-1.142,3.19-1.49,6.347-3.002,9.647-4.24l-2.46-1.397c1.626,6.938,2.789,13.976,4.382,20.921.405,1.767.681,3.577,2.714,4.047,2.066.477,4.317.473,6.424.558,7.643.308,15.309.237,22.955.078,3.924-.082,7.847-.202,11.767-.399,1.694-.085,3.388-.184,5.08-.311,1.04-.079,2.186-.004,2.901-.895.297-.37.442-.823.601-1.266,1.161-3.242,1.917-6.673,2.743-10.01,1.021-4.126,2.046-8.288,2.664-12.497l-2.46,1.397c3.08,1.157,5.992,2.612,8.952,4.035.86.413,1.725.816,2.596,1.205.513.229,1.677.515,1.914,1.06.279.64.055,1.92.061,2.597.007.868.006,1.735,0,2.603-.063,7.786-.531,15.56-.436,23.349.031,2.572,4.031,2.579,4,0h0Z"/><path class="k" d="M73.668,31.456c-3.881,1.778-10.905,5.614-11.516,5.351-.421-.181-1.186-1.946-1.732-3.631-.328-1.011-.577-1.994-.626-2.588-8.378,6.961-13.376,11.393-23.054,21.033-.939-.95-2.42-1.42-3.799-1.214-.362.054-.715.154-1.047.296-2.356-9.743-1.77-17.99.202-23.781,1.967-5.777,6.657-12.436,12.486-14.569l-5.26-1.071c7.664-7.713,17.744-9.48,26.494-9.213,9.342.286,16.641,3.964,21.02,9.962l5.036,4.171c4.127,2.138,7.999,6.541,10.01,12.162,2.86,7.996,2.528,16.424.264,22.237-.257-.089-.523-.155-.794-.196-1.383-.207-2.868.267-3.806,1.221-3.474-8.015-9.824-14.739-17.615-18.687l-6.262-1.485Z"/><path class="h" d="M99.121,52.886c1.019-.852,2.79-.666,3.521.464.475.734.475,1.776.497,2.619.028,1.059-.027,2.128-.218,3.172-.688,3.77-2.608,8.286-6.796,9.037-1.064.191-1.664,1.487-1.397,2.46.308,1.121,1.393,1.588,2.46,1.397,6.375-1.143,9.415-8.342,9.895-14.119.246-2.964.009-6.353-2.555-8.274-2.525-1.891-5.881-1.552-8.235.417-.829.693-.716,2.112,0,2.828.821.821,1.997.695,2.828,0h0Z"/><path class="h" d="M94.61,66.715c-.065,1.593-.506,3.135-1.002,4.643-.09.274-.194.545-.275.822-.037.126-.198.478.025-.039-.141.326-.293.646-.453.962-.954,1.897-2.117,3.697-3.367,5.411-2.936,4.026-6.921,8.291-11.949,9.471-2.505.588-1.445,4.446,1.063,3.857,5.996-1.407,10.648-6.309,14.175-11.085,3.047-4.125,5.569-8.8,5.782-14.043.104-2.574-3.896-2.569-4,0h0Z"/><path class="h" d="M37.999,50.058c-2.357-1.971-5.706-2.305-8.235-.417-2.567,1.916-2.801,5.314-2.555,8.274.48,5.777,3.52,12.976,9.895,14.119,1.062.19,2.156-.288,2.46-1.397.266-.968-.328-2.269-1.397-2.46-4.189-.751-6.108-5.267-6.796-9.037-.18-.986-.237-1.993-.221-2.994.014-.858.004-1.9.426-2.675.673-1.236,2.543-1.465,3.595-.585.828.692,2.017.812,2.828,0,.712-.712.832-2.132,0-2.828h0Z"/><path class="h" d="M35.889,66.445c1.082,6.196,3.453,12.107,7.539,16.944,4.242,5.022,9.858,8.654,16.472,9.368,1.076.116,2-1.002,2-2,0-1.178-.921-1.884-2-2-5.669-.612-10.405-4.242-13.922-8.53-3.469-4.23-5.301-9.518-6.231-14.845-.186-1.065-1.49-1.663-2.46-1.397-1.124.309-1.583,1.392-1.397,2.46h0Z"/><path class="h" d="M90.863,17.929c10.45,5.557,13.111,20.556,9.755,31.023-.788,2.457,3.073,3.509,3.857,1.063,3.887-12.126.399-29.162-11.594-35.54-2.272-1.208-4.295,2.243-2.019,3.454h0Z"/><path class="h" d="M44.05,10.423c-6.988,2.667-11.884,9.61-14.075,16.552-2.457,7.785-1.878,16.347-.027,24.187.591,2.504,4.449,1.444,3.857-1.063-1.647-6.976-2.184-14.498-.156-21.459,1.66-5.696,5.68-12.153,11.463-14.36,1.009-.385,1.703-1.347,1.397-2.46-.265-.966-1.446-1.784-2.46-1.397h0Z"/><path class="h" d="M88.563,11.022c-4.293-5.789-10.696-9.347-17.783-10.471S55.884-.012,49.152,2.605c-4.225,1.642-8.024,4.066-11.245,7.262-1.83,1.816.998,4.644,2.828,2.828,4.832-4.795,11.158-7.517,17.879-8.334,6.293-.764,13.118-.446,18.878,2.428,2.971,1.482,5.631,3.574,7.617,6.251.642.866,1.732,1.305,2.736.718.854-.5,1.365-1.864.718-2.736h0Z"/><path class="h" d="M72.659,29.729c-2.858,1.318-5.632,2.807-8.47,4.167-.523.251-1.047.508-1.584.73.308-.128-.301.108-.358.132-.464.196-.295-.106.011.061,1.835,1.004,1.31.736.956.047-.229-.445-.407-.911-.577-1.381-.332-.915-.728-1.925-.843-2.898-.209-1.766-2.011-2.58-3.414-1.414-7.766,6.456-15.189,13.225-22.358,20.34-1.83,1.816.998,4.645,2.828,2.828,7.169-7.114,14.592-13.884,22.358-20.34l-3.414-1.414c.274,2.315,1.034,5.087,2.395,7.014,1.161,1.644,2.685,1.229,4.246.559,3.489-1.496,6.797-3.389,10.243-4.978.981-.452,1.225-1.869.718-2.736-.589-1.007-1.752-1.171-2.736-.718h0Z"/><path class="h" d="M78.921,34.668c7.382,3.777,13.243,9.936,16.691,17.474.449.982,1.871,1.224,2.736.718,1.009-.59,1.168-1.75.718-2.736-3.7-8.091-10.208-14.858-18.126-18.909-.961-.492-2.17-.251-2.736.718-.523.894-.248,2.243.718,2.736h0Z"/><g id="f"><path class="h" d="M61.52,76.469c1.909,1.008,3.961,1.44,6.121,1.426,2.257-.015,4.47-.487,6.27-1.889.829-.646.729-2.159,0-2.828-.88-.807-1.944-.689-2.828,0,.686-.534-.064.013-.284.128-.17.089-.635.23-.021.029-.169.055-.332.128-.502.182-.214.069-.43.127-.649.178-.151.035-.653.043-.755.143.108-.106.363-.042-.008-.005-.138.014-.276.025-.414.034-.332.021-.665.03-.998.028-.298-.002-.596-.012-.894-.032-.137-.009-.273-.02-.409-.034-.078-.008-.156-.016-.233-.026-.156-.019-.102-.012.161.021-.182.033-.491-.085-.672-.125-.215-.048-.428-.103-.64-.166-.184-.055-.363-.121-.544-.183-.462-.158.403.195-.015-.002-.225-.106-.447-.217-.667-.333-.925-.488-2.217-.265-2.736.718-.488.924-.27,2.215.718,2.736h0Z"/><path class="h" d="M66.408,62.33c.256.978.503,1.971.65,2.972l-.071-.532c.017.137.025.272.011.41l.071-.532c-.01.064-.024.124-.045.184l.202-.478c-.019.043-.039.08-.065.119l.313-.405c-.031.037-.06.066-.097.096l.405-.313c-.075.048-.154.087-.235.125l.478-.202c-.13.054-.258.094-.397.116l.532-.071c-.125.015-.247.014-.372,0l.532.071c-.14-.02-.278-.054-.419-.073-.266-.083-.532-.095-.798-.036-.266.012-.514.091-.744.237-.415.243-.811.718-.919,1.195-.117.512-.091,1.087.202,1.541.26.403.695.852,1.195.919.362.049.713.14,1.082.156.587.026,1.125-.158,1.648-.4.655-.303,1.171-.919,1.345-1.623.149-.602.088-1.092-.014-1.695-.162-.958-.383-1.907-.629-2.846-.127-.483-.49-.944-.919-1.195s-1.061-.357-1.541-.202c-.484.157-.951.457-1.195.919-.253.48-.342,1.007-.202,1.541h0Z"/><path class="h" d="M51.152,53.786c-.496,1.613-.173,5.323,2.883,5.639,4.039-.024,4.254-4.51,2.894-6.619-1.113-1.727-4.386-2.445-5.777.98Z"/><path class="h" d="M83.494,53.786c.496,1.613.173,5.323-2.883,5.639-4.039-.024-4.254-4.51-2.894-6.62,1.113-1.727,4.386-2.445,5.777.98Z"/></g></g></g></svg>