<?xml version="1.0" encoding="UTF-8"?><svg id="b" xmlns="http://www.w3.org/2000/svg" width="116.314" height="441.466" viewBox="0 0 116.314 441.466"><defs><style>.g{fill:#211715;}.h{fill:#fff;}.i{fill:#5394cf;}.j{fill:#f4b867;}.k{fill:#645d5c;}</style></defs><g id="c"><g id="d"><path class="h" d="M87.909,47.758c.887-.8,2.201-1.187,3.43-1.004s2.348.925,2.91,1.935c.397.708.526,1.515.599,2.302.269,3.103-.342,6.264-1.749,9.091-.685,1.377-1.578,2.696-2.819,3.699-.953.76-2.12,1.324-3.361,1.515,0,0-.209.032-.576.092-.276,1.031-.585,1.899-.737,2.36-1.017,2.761-6.894,12.583-14.169,15.57.026,2.094.245,4.166.606,6.23.345,1.967.237,3.726,2.972,4.713.181.065,3.259,1.266,3.536,1.38,0,0-1.122,19.454-22.159,19.454s-19.852-18.37-19.852-18.37c.527-.18,6.405-2.398,6.586-2.464,2.735-.988,2.627-2.746,2.972-4.713.368-2.099.588-4.206.605-6.331-3.174-1.435-6.087-3.793-8.685-6.903-2.932-3.509-4.586-7.412-5.558-10.849-.682-.105-1.096-.169-1.096-.169-1.24-.191-2.407-.754-3.361-1.515-1.241-1.004-2.134-2.322-2.819-3.699-1.406-2.827-2.018-5.989-1.749-9.091.073-.787.202-1.594.599-2.302.563-1.01,1.681-1.751,2.91-1.935s2.544.203,3.43,1.004c0,0-.946-26.291,28.388-26.291s29.145,26.291,29.145,26.291Z"/><path class="k" d="M39.4,88.595c2.694-.957,5.243-2.657,7.202-5.423-3.135-1.439-6.013-3.78-8.583-6.856-2.932-3.509-4.586-7.412-5.558-10.849-.624-.097-1.096-.169-1.096-.169-1.24-.191-2.407-.754-3.361-1.515-.17-.137-.334-.281-.491-.429-.779,1.428-1.349,3.079-1.619,5.139-.12.98-.18,2.06-.16,3.25.04,2.58.69,5.22.82,7.8.12,2.58-.95,5.53-3.4,6.36-1.115,1.796,8.213,5.547,16.246,2.693Z"/><path class="g" d="M25.787,62.342c-1.21,2.283-1.823,4.722-2.002,7.295-.195,2.801.313,5.5.628,8.268.206,1.809.356,3.893-.895,5.393-.608.729-1.634.799-2.123,1.651-.338.59-.412,1.315-.238,1.969.582,2.191,3.475,3.218,5.382,3.789,2.98.892,6.216,1.136,9.298.741,4.377-.562,8.467-2.454,11.381-5.833,1.673-1.941-1.144-4.782-2.828-2.828-3.278,3.802-8.051,5.141-12.902,4.785-1.555-.114-3.835-.595-5.186-1.17.234.1-.298-.14-.348-.165-.153-.076-.305-.155-.454-.24-.253-.144-.809-.56-.417-.246-.057-.046-.243-.171-.257-.243-.061-.305.281.422.084.098.197.322.185.918-.029,1.304l-1.195.919c4.228-1.605,5.188-6.063,4.703-10.13-.538-4.506-1.38-9.126.852-13.339,1.205-2.273-2.247-4.297-3.454-2.019h0Z"/><path class="k" d="M91.911,26.373c-3.38-14.097-17.822-25.14-32.952-24.315-15.441-.842-30.165,10.677-33.146,25.187-.808,3.913-.711,10.609.023,13.734l1.239,5.787c1.022-.119,2.091.14,2.915.688,5.567-4.412,16.812-11.343,22.2-15.822-.441,2.645-2.007,7.144-.034,6.682,8.243-1.845,16.143-5.568,20.904-11.387,1.008,3.431,2.675,8.071,3.899,10.098,1.777,2.943,6.951,9.761,11.469,10.355.835-.52,1.903-.747,2.912-.601.179.026.356.063.527.116,2.425-5.554,1.205-14.96.239-19.648-.06-.292-.125-.583-.194-.872Z"/><path class="g" d="M27.765,40.447c-.797-3.562-.696-7.551-.269-11.155s1.797-7.09,3.66-10.181c3.946-6.546,10.431-11.567,17.737-13.8,3.867-1.182,7.683-1.3,11.69-1.296,3.84.004,7.659.812,11.206,2.28,7.074,2.928,13.07,8.496,16.373,15.412,1.69,3.54,2.429,7.458,2.833,11.336.454,4.357.676,9.123-1.03,13.252-.413.999.446,2.199,1.397,2.46,1.149.316,2.046-.394,2.46-1.397,1.648-3.989,1.64-8.643,1.305-12.878-.312-3.948-.862-8.028-2.233-11.762-2.966-8.074-9.134-14.828-16.753-18.779-3.911-2.029-8.129-3.311-12.512-3.765C61.485-.048,59.307,0,57.154.015c-2.201.016-4.415.275-6.568.728-8.491,1.787-16.11,6.934-21.237,13.885-2.735,3.709-4.784,8.12-5.576,12.676s-.881,9.666.135,14.205c.562,2.511,4.419,1.448,3.857-1.063h0Z"/><path class="g" d="M71.26,27.892c1.347,4.441,2.872,8.88,5.664,12.632,2.615,3.514,6.109,7.717,10.6,8.72,2.508.56,3.579-3.295,1.063-3.857-3.454-.772-6.442-4.437-8.495-7.271-2.451-3.382-3.772-7.32-4.975-11.288-.745-2.457-4.607-1.41-3.857,1.063h0Z"/><path class="g" d="M71.736,25.429c-3.339,4.038-7.893,6.858-12.746,8.737-1.29.499-2.602.941-3.929,1.331-.668.196-1.339.379-2.014.549-.33.083-.695.134-1.015.246l-.407.093c.777-.032,1.278.217,1.505.747.202-.061-.15.671.054.025.056-.178.014-.427.035-.614.046-.407.14-.813.224-1.214.221-1.056.489-2.103.676-3.166.355-2.015-1.764-3.249-3.343-1.946-6.981,5.766-14.994,10.168-22.115,15.756-.85.667-.699,2.129,0,2.828.84.84,1.976.669,2.828,0,7.122-5.59,15.127-9.985,22.115-15.756l-3.343-1.946c-.396,2.244-1.639,5.076-.897,7.345.486,1.485,1.851,2.074,3.323,1.797,1.698-.32,3.388-.842,5.026-1.382,6.332-2.084,12.545-5.395,16.85-10.602,1.629-1.97-1.186-4.815-2.828-2.828h0Z"/><path class="g" d="M89.323,49.172c.906-.758,2.478-.577,3.13.413.438.666.432,1.64.452,2.406.026.987-.024,1.982-.201,2.954-.641,3.509-2.413,7.724-6.315,8.424-1.064.191-1.664,1.487-1.397,2.46.308,1.121,1.393,1.588,2.46,1.397,6.054-1.085,8.944-7.916,9.4-13.403.236-2.839-.011-6.055-2.464-7.89-2.422-1.812-5.639-1.475-7.894.411-.829.693-.716,2.112,0,2.828.821.821,1.997.695,2.828,0h0Z"/><path class="g" d="M84.877,62.105c-.06,1.489-.476,2.93-.939,4.339-.063.191-.491,1.317-.223.709-.135.306-.276.608-.426.906-.898,1.785-1.993,3.48-3.169,5.093-2.745,3.765-6.476,7.758-11.177,8.861-2.505.588-1.445,4.446,1.063,3.857,5.674-1.331,10.074-5.968,13.412-10.488,2.881-3.9,5.258-8.321,5.458-13.277.104-2.574-3.896-2.569-4,0h0Z"/><path class="g" d="M31.791,46.343c-2.258-1.888-5.467-2.219-7.894-.411-2.455,1.829-2.699,5.056-2.464,7.89.456,5.487,3.346,12.318,9.4,13.403,1.062.19,2.156-.288,2.46-1.397.266-.968-.328-2.269-1.397-2.46-3.903-.7-5.675-4.915-6.315-8.424-.168-.918-.219-1.855-.204-2.787.013-.786,0-1.747.385-2.458.591-1.094,2.266-1.307,3.199-.527.828.692,2.017.812,2.828,0,.712-.712.832-2.132,0-2.828h0Z"/><path class="g" d="M29.609,61.882c1.022,5.853,3.267,11.432,7.126,16.001,4.015,4.753,9.33,8.176,15.587,8.852,1.076.116,2-1.002,2-2,0-1.178-.921-1.884-2-2-5.305-.573-9.731-3.986-13.021-7.995-3.253-3.964-4.964-8.93-5.835-13.921-.186-1.065-1.49-1.663-2.46-1.397-1.124.309-1.583,1.392-1.397,2.46h0Z"/><path class="j" d="M22.798,125.155c1.79,14.359.612,34.271,1.85,44.143,1.085,7.414,14.639,28.985,20.935,38.318-3.852,4-12.296,11.111-17.63,16-10.889-13.111-21.723-32.691-24.889-49.556-2.359-12.568-.371-28.005,2.46-46.547.81-5.306,1.689-10.797,4.639-15.281,2.754-4.187,7.059-7.089,11.442-9.519,4.375-2.426,8.948-4.496,13.657-6.186,12.241,8.116,33.177,9.808,47.766.597,4.141,1.569,8.172,3.439,12.048,5.588,4.383,2.43,8.688,5.332,11.442,9.519,2.95,4.484,3.829,9.975,4.639,15.281,2.831,18.541,4.268,36.868,1.909,49.435-3.166,16.864-18.148,36.593-24.667,46.37-5.868-4.328-14.37-11-19.259-14.222,6.37-9.037,21.809-32.386,22.894-39.8,1.238-9.873-.401-29.785,1.389-44.143H22.798Z"/><path class="h" d="M83.114,394.858c.023,4.585,1.158,9.161,3.282,13.224l-21.054-.409c.027-3.943.054-7.886.081-11.828"/><path class="h" d="M36.806,394.858c-.023,4.585-1.158,9.161-3.282,13.224l21.054-.409c-.027-3.943-.054-7.886-.081-11.828"/><path class="g" d="M34.573,394.858c-.039,4.233-1.061,8.449-3.009,12.215-.496.959-.248,2.172.718,2.736.897.525,2.238.245,2.736-.718,2.279-4.405,3.51-9.271,3.555-14.234.01-1.046-.927-2.048-2-2-1.092.049-1.99.879-2,2h0Z"/><path class="g" d="M52.264,395.846c.027,3.943.054,7.886.081,11.828.007,1.046.915,2.049,2,2,1.077-.048,2.008-.879,2-2-.027-3.943-.054-7.886-.081-11.828-.007-1.046-.915-2.049-2-2-1.077.048-2.008.879-2,2h0Z"/><path class="g" d="M81.114,394.858c.045,4.963,1.276,9.828,3.555,14.234.496.959,1.838,1.243,2.736.718.973-.569,1.216-1.774.718-2.736-1.948-3.766-2.97-7.98-3.009-12.215-.01-1.046-.913-2.049-2-2-1.075.048-2.01.879-2,2h0Z"/><path class="g" d="M63.423,395.846c-.027,3.943-.054,7.886-.081,11.828-.007,1.046.925,2.048,2,2,1.09-.049,1.992-.879,2-2,.027-3.943.054-7.886.081-11.828.007-1.046-.925-2.048-2-2-1.09.049-1.992.879-2,2h0Z"/><path class="h" d="M26.776,191.128c-1.391,4.88-3.111,12.983-4.233,19.344-5.485,31.082-.183,62.809,2.197,93.229,2.468,31.549,3.977,63.098,6.445,94.647,9.903.969,17.703,1.037,27.822.201,10.129.836,17.931.768,27.838-.201,2.468-31.549,3.977-63.098,6.445-94.647,2.38-30.419,7.682-62.147,2.197-93.229-1.122-6.361-2.843-14.464-4.233-19.344"/><path class="g" d="M82.015,95.401c-10.865,6.778-24.978,7.549-36.992,3.594-3.09-1.017-6.029-2.401-8.752-4.185-2.16-1.414-4.166,2.048-2.019,3.454,11.124,7.285,26.183,8.857,38.865,5.348,3.835-1.061,7.54-2.651,10.917-4.758,2.179-1.36.174-4.822-2.019-3.454h0Z"/><path class="g" d="M44.704,83.434c-.041,2.028-.272,3.927-.584,5.884-.095.594-.16,1.196-.317,1.778-.035.131-.094.261-.122.393-.044.204.063-.147.073-.163-.035.058-.057.124-.093.183-.038.062-.273.427-.11.205.155-.21-.174.164-.24.232-.234.239.198-.09-.121.081-.164.088-.322.186-.49.267.216-.105-.109.041-.205.077-.302.113-.604.227-.906.341-1.024.385-2.048.771-3.072,1.155-.834.313-1.665.64-2.507.931-1.02.353-1.696,1.371-1.397,2.46.273.992,1.435,1.752,2.46,1.397,1.891-.654,3.755-1.399,5.627-2.104,1.124-.423,2.243-.812,3.193-1.574,1.249-1.003,1.762-2.473,1.994-4.004.38-2.509.765-4.994.816-7.537.021-1.047-.935-2.048-2-2-1.102.049-1.978.879-2,2h0Z"/><path class="g" d="M69.439,83.434c.046,2.333.355,4.625.723,6.926.241,1.504.496,2.9,1.53,4.092.935,1.077,2.266,1.532,3.552,2.031.926.36,1.855.712,2.775,1.086.972.395,2.24-.429,2.46-1.397.264-1.161-.356-2.037-1.397-2.46-.813-.331-1.635-.643-2.453-.961-.345-.134-.69-.27-1.036-.401-.079-.03-.159-.057-.237-.089.338.14-.202-.116-.266-.153-.113-.065-.537-.421-.175-.09-.104-.096-.203-.196-.306-.293-.301-.285.181.337-.009-.014-.06-.112-.125-.223-.187-.334-.185-.329.109.423-.007-.052-.035-.145-.084-.287-.118-.433-.133-.572-.197-1.158-.292-1.737-.305-1.851-.518-3.707-.558-5.723-.021-1.045-.905-2.049-2-2-1.066.048-2.022.879-2,2h0Z"/><path class="g" d="M26.776,192.935h64.079c2.574,0,2.578-4,0-4H26.776c-2.574,0-2.578,4,0,4h0Z"/><path class="g" d="M57.843,248.407c-.419,4.589-.374,9.241-.411,13.844-.054,6.696-.029,13.393.01,20.089.056,9.691.169,19.382.155,29.073-.015,10.533-.042,21.066-.062,31.598-.022,11.87-.043,23.74-.036,35.61.003,4.298.007,8.597.031,12.895.011,2.051-.068,4.136.084,6.184.042.57.123,1.229.611,1.619.843.673,2.005.824,2.828,0,.698-.698.849-2.151,0-2.828.351.281.591,1.119.565,1.277.014-.086-.013-.195-.015-.283-.005-.322-.019-.644-.025-.966-.022-1.149-.031-2.298-.039-3.447-.029-3.951-.034-7.902-.038-11.853-.013-11.572.007-23.143.028-34.715.02-10.863.046-21.726.065-32.59.015-8.989-.058-17.976-.121-26.964-.085-12.076-.391-24.221.219-36.288.038-.753.084-1.505.152-2.256.098-1.077-.99-2-2-2-1.164,0-1.901.92-2,2h0Z"/><path class="g" d="M24.848,190.596c-3.325,11.765-5.438,24.077-6.269,36.266-.933,13.689-.253,27.429.882,41.084s2.638,27.138,3.66,40.735c1.054,14.023,1.94,28.058,2.825,42.093,1,15.863,2.001,31.726,3.238,47.573.091,1.16.849,1.889,2,2,8.831.854,17.636.97,26.485.308,2.551-.191,2.572-4.193,0-4-8.849.663-17.653.547-26.485-.308l2,2c-2.189-28.041-3.633-56.134-5.659-84.186-.981-13.584-2.349-27.122-3.581-40.684-1.233-13.562-2.164-27.189-1.667-40.813.504-13.809,2.666-27.698,6.427-41.005.701-2.481-3.157-3.541-3.857-1.063h0Z"/><path class="g" d="M89.325,191.66c3.317,11.737,5.43,24.004,6.189,36.17.844,13.533.147,27.105-.986,40.599s-2.624,26.983-3.639,40.503c-1.053,14.023-1.937,28.059-2.822,42.093-.995,15.78-1.992,31.56-3.222,47.324l2-2c-8.831.854-17.636.97-26.485.308-2.568-.192-2.555,3.809,0,4,8.849.663,17.653.547,26.485-.308,1.143-.111,1.909-.831,2-2,2.202-28.207,3.649-56.466,5.695-84.685.99-13.658,2.383-27.269,3.61-40.906,1.221-13.564,2.121-27.195,1.573-40.818-.559-13.906-2.754-27.939-6.542-41.343-.699-2.473-4.56-1.422-3.857,1.063h0Z"/><path class="i" d="M97.888,211.866c-.411,19.165,8.624,97.184,8.605,116.143-12.318.497-80.318.497-94.247-.614,0-18.663,8.306-94.857,7.895-114.022l2.656-88.219c-.585-8.564-.54-15.668-.371-22.865.012-.49.033-1.007.291-1.424.298-.483.85-.736,1.371-.963,4.416-1.924,6.761-3.418,11.305-5.111.202,5.494,3.143,18.727,3.603,19.391.712,1.026,26.996.969,38.226,0,.461-.664,3.302-14.614,3.504-20.108,4.543,1.693,6.989,3.903,11.404,5.827.52.227,1.073.48,1.371.963.258.417.279.934.291,1.424.169,7.197.213,14.301-.371,22.865l4.467,86.711Z"/><path class="h" d="M83.392,129.578c-1.103,0-19.214.193-20.89.193,0,1.859.211,9.227.211,10.952,6.6.035,17.996.141,20.679.126.09-2.525.013-10.209,0-11.272Z"/><path class="g" d="M83.392,127.578c-5.908.007-11.816.115-17.723.169-1.055.01-2.111.023-3.166.024-1.08,0-2.002.916-2,2,.007,3.651.203,7.301.211,10.952.002,1.085.915,1.994,2,2,6.892.037,13.787.159,20.679.126,1.108-.005,1.964-.913,2-2,.125-3.752.047-7.519,0-11.272-.032-2.572-4.033-2.579-4,0,.047,3.753.126,7.52,0,11.272l2-2c-6.892.033-13.787-.089-20.679-.126l2,2c-.008-3.651-.204-7.301-.211-10.952l-2,2c6.006-.005,12.013-.112,18.019-.169.957-.009,1.914-.023,2.87-.024,2.574-.003,2.578-4.003,0-4Z"/><path class="g" d="M95.888,211.866c.092,5.712.552,11.424.978,17.118.629,8.402,1.347,16.798,2.071,25.192,1.553,17.989,3.219,35.972,4.531,53.981.48,6.598,1.026,13.232,1.025,19.852l2-2c-11.031.44-22.098.378-33.135.413-14.927.048-29.86.026-44.784-.313-5.438-.124-10.909-.202-16.327-.714l2,2c.582-13.939,1.644-27.867,2.609-41.783,1.213-17.497,2.485-34.991,3.79-52.482.491-6.586.985-13.172,1.497-19.757.199-2.567-3.802-2.554-4,0-1.08,13.894-2.101,27.793-3.112,41.692-1.272,17.498-2.525,34.999-3.649,52.507-.424,6.604-.858,13.211-1.134,19.823-.048,1.153.96,1.902,2,2,4.665.441,9.37.537,14.052.658,7.043.183,14.089.267,21.135.32,14.735.112,29.473.088,44.208-.078,4.95-.056,9.906-.09,14.852-.287,1.08-.043,2-.881,2-2,0-5.724-.435-11.457-.834-17.164-.587-8.411-1.285-16.814-1.998-25.215-1.527-17.987-3.201-35.963-4.592-53.961-.509-6.585-1.077-13.195-1.183-19.802-.041-2.571-4.041-2.579-4,0h0Z"/><path class="j" d="M111.155,127.514c2.831,18.541,4.268,36.868,1.909,49.435-3.166,16.864-18.148,36.593-24.667,46.37-5.868-4.328-14.37-11-19.259-14.222,6.37-9.037,21.809-32.386,22.894-39.8,1.238-9.873-.401-29.785,1.389-44.143"/><path class="j" d="M5.524,127.514c-2.831,18.541-4.819,33.979-2.46,46.547,3.166,16.864,14.296,35.407,25.185,48.519,5.333-4.889,13.481-10.963,17.333-14.963-6.296-9.333-19.85-30.904-20.935-38.318-1.238-9.873-.06-29.785-1.85-44.143"/><g id="e"><path class="h" d="M84.19,223.894c-.7,1.105-1.455,2.175-2.257,3.218-1.261,1.639-3.156,4.378-5.683,7.066-3.821,4.063-8.188,8.075-9.836,9.448-1.024.853-2.493,1.808-3.71,2.377-1.851.865-4.531-1.011-4.195-1.942-.784.873-4.133,1.4-5.778.556-2.083-1.07-1.016-3.697-1-3.778-1.345.788-2.897-.063-3.889-.778-.982-.707-1.759-2.19-.667-4.889.432-1.067,3.767-3.707,4.337-4.33.776-.849,2.368-2.438,4.143-4.151-.947-1.614-1.817-3.096-1.817-3.096-.415-2.035.587-3.908,1.756-5.185,1.37-1.497,4.219-4.041,6.167-4.591,3.225-.912,5.948-1.402,8.811-2.63l1.306-.756,14,10.889-1.689,2.574Z"/><path class="h" d="M44.472,210.579c2.382,1.406,3.504,1.629,6.228,2.329s4.983,1.098,6.217,3.449c0,0,2.23,3.386-.296,10.222-5.037,13.63-13.356,8.459-13.356,8.459-2.465-1.541-4.204-3.868-5.883-6.139-1.8-2.434-3.607-4.88-4.972-7.545"/><path class="g" d="M70.041,209.259c-2.116.892-4.331,1.456-6.55,2.026-2.047.526-3.839,1.102-5.553,2.373-3.403,2.524-6.83,5.849-6.028,10.468.185,1.065,1.491,1.663,2.46,1.397,1.125-.309,1.582-1.392,1.397-2.46-.239-1.38.67-2.651,1.558-3.575,1.052-1.094,2.191-2.119,3.416-2.927.311-.205.63-.4.961-.572.042-.022.509-.235.309-.155s.241-.074.282-.087c.982-.304,1.991-.534,2.986-.79,1.978-.508,3.94-1.046,5.825-1.841.995-.419,1.71-1.322,1.397-2.46-.258-.937-1.458-1.819-2.46-1.397h0Z"/><path class="g" d="M60.249,219.702c-4.029,3.516-7.61,7.508-11.607,11.043-2.323,2.054-4.394,4.215-3.925,7.61.497,3.6,4.826,5.723,8.024,4.211l-2.938-2.259c-.705,2.24-.325,4.825,1.919,6.036,2.298,1.241,6.264.967,8.201-.868l-3.343-1.946c-.654,3.375,3.929,5.416,6.655,4.402,2.914-1.084,5.316-3.459,7.557-5.538,5.667-5.258,10.938-10.963,15.125-17.49,1.394-2.173-2.067-4.181-3.454-2.019-3.334,5.197-7.414,9.842-11.827,14.139-1.781,1.734-3.58,3.478-5.493,5.068-.873.726-2.077,1.734-3.183,2.056-.317.092-.567.086-.899-.033-.175-.063-.365-.257-.547-.301l-.183-.173c.183.268.218.586.107.952.372-1.923-1.828-3.381-3.343-1.946.218-.206-.215.088-.318.125-.314.114-.667.186-.998.229-.633.083-1.428.123-2.038-.111-.63-.242-.265-.935-.081-1.519.565-1.797-1.46-2.957-2.938-2.259-.622.294-1.869-.689-1.999-1.033-.123-.328-.087-.753-.017-1.125.099-.526.279-.968.415-1.132,1.165-1.408,2.722-2.441,3.981-3.755,3.177-3.317,6.515-6.517,9.976-9.537,1.943-1.696-.896-4.515-2.828-2.828h0Z"/><path class="g" d="M62.994,225.312c-2.612,2.705-5.051,5.57-7.719,8.224-.672.668-1.352,1.338-2.09,1.933-.818.66-.738,2.151,0,2.828.869.797,1.956.704,2.828,0,1.468-1.184,2.768-2.597,4.065-3.96,1.472-1.546,2.914-3.12,4.355-4.695.46-.503.915-1.012,1.389-1.502.727-.753.806-2.089,0-2.828-.787-.722-2.052-.804-2.828,0h0Z"/><path class="g" d="M67.621,229.16c-.122.166.411-.508.151-.197-.076.091-.15.182-.226.273-.203.24-.411.477-.619.712-.589.664-1.189,1.319-1.793,1.968-1.442,1.55-2.911,3.078-4.436,4.546-.69.665-1.391,1.324-2.139,1.924-.82.657-.736,2.152,0,2.828.87.799,1.954.701,2.828,0,1.481-1.188,2.82-2.566,4.146-3.922,1.402-1.434,2.779-2.895,4.113-4.393.496-.557.989-1.118,1.43-1.721.62-.847.171-2.267-.718-2.736-1.041-.55-2.075-.187-2.736.718h0Z"/><path class="g" d="M43.462,212.306c2.207,1.292,4.522,1.977,6.982,2.601.557.141,1.116.277,1.67.433.273.077.545.158.813.249.13.044.258.092.387.138.103.037.421.214.042.013.231.123.468.227.693.363.088.054.173.112.26.168.408.26-.266-.271.084.068.171.165.327.347.496.512.144.14-.139-.253.033.062.084.154.182.3.267.454.501.92,1.847,1.291,2.736.718.933-.601,1.254-1.753.718-2.736-1.35-2.476-3.819-3.456-6.414-4.116-1.239-.315-2.49-.601-3.712-.979-.252-.078-.503-.161-.751-.252-.123-.045-.246-.102-.371-.142-.221-.072.299.141-.049-.022-.639-.299-1.257-.628-1.866-.984-.904-.529-2.232-.237-2.736.718s-.247,2.172.718,2.736h0Z"/><path class="g" d="M30.682,222.365c1.458,2.815,3.353,5.365,5.238,7.904,1.826,2.46,3.721,4.829,6.335,6.497.911.581,2.206.189,2.736-.718.565-.966.195-2.154-.718-2.736-2.07-1.321-3.709-3.452-5.166-5.421-1.793-2.424-3.582-4.861-4.972-7.545-.497-.959-1.838-1.243-2.736-.718-.973.569-1.216,1.774-.718,2.736h0Z"/><path class="g" d="M48.675,222.122c.638.344,1.288.653,1.967.91.528.2,1.066.373,1.595.573.266.083.532.095.798.036.266-.012.514-.091.744-.237.415-.243.811-.718.919-1.195.117-.512.091-1.087-.202-1.541l-.313-.405c-.25-.248-.544-.419-.883-.514-.623-.235-1.263-.429-1.878-.686l.478.202c-.413-.175-.811-.383-1.206-.596-.467-.252-1.023-.344-1.541-.202-.464.128-.967.486-1.195.919-.245.464-.368,1.026-.202,1.541.157.486.457.946.919,1.195h0Z"/></g><path class="g" d="M91.424,125.152c-.138,13.821.15,27.763-1.111,41.542-.053.58-.111,1.16-.176,1.739-.072.64-.021.402-.166,1.04-.185.811-.457,1.602-.752,2.379-.72,1.901-1.773,4.008-2.814,5.99-2.789,5.312-5.934,10.44-9.152,15.5-3.172,4.988-6.443,9.917-9.846,14.751-.646.918-.122,2.181.718,2.736,6.652,4.402,12.852,9.479,19.26,14.22.905.67,2.189.102,2.736-.718,4.525-6.775,9.289-13.376,13.491-20.364,4.771-7.934,9.293-16.5,11.21-25.633,2.058-9.802,1.628-20.138.825-30.055-.484-5.974-1.206-11.926-2.056-17.858-.767-5.355-1.418-10.848-3.577-15.857-2.297-5.329-6.601-9.157-11.463-12.144-5.463-3.356-11.412-6.012-17.456-8.128-2.434-.852-3.481,3.011-1.063,3.857,5.226,1.83,10.297,4.121,15.095,6.889,4.037,2.329,7.976,5.151,10.32,9.283,2.483,4.378,3.151,9.559,3.889,14.459.858,5.697,1.585,11.414,2.109,17.152.885,9.707,1.495,19.808-.13,29.473-1.474,8.769-5.533,16.914-9.967,24.532-4.496,7.724-9.723,14.95-14.681,22.374l2.736-.718c-6.408-4.741-12.608-9.818-19.26-14.22l.718,2.736c6.536-9.285,12.837-18.86,18.249-28.848,2.066-3.812,4.441-7.955,4.969-12.328.76-6.297.887-12.686,1.036-19.021.195-8.253.227-16.508.309-24.762.026-2.575-3.974-2.577-4,0h0Z"/><path class="k" d="M104.573,435.225c.11-.144.214-.293.312-.446,1.301-2.041,1.302-4.704.553-7.006-.749-2.302-2.165-4.32-3.595-6.273-3.47-4.739-7.141-9.329-11-13.756-1.506-1.728-3.209-3.528-5.461-3.953.364,1.357-.487,2.816-1.684,3.553s-2.657.893-4.061.917c-6.571.114-12.447-2.945-15.777-6.279.026,4.746-.021,6.326,0,11.073.005,1.156.015,2.34.416,3.424.976,2.639,3.869,3.91,6.191,5.499,6.041,4.134,9.222,11.676,15.552,15.351,4.537,2.635,10.394,2.845,15.108.541,1.313-.641,2.564-1.491,3.446-2.646Z"/><path class="k" d="M15.113,435.225c-.11-.144-.214-.293-.312-.446-1.301-2.041-1.302-4.704-.553-7.006s2.165-4.32,3.595-6.273c3.47-4.739,7.141-9.329,11-13.756,1.506-1.728,3.209-3.528,5.461-3.953-.364,1.357.487,2.816,1.684,3.553s2.657.893,4.061.917c6.571.114,12.447-2.945,15.777-6.279-.026,4.746.021,6.326,0,11.073-.005,1.156-.015,2.34-.416,3.424-.976,2.639-3.869,3.91-6.191,5.499-6.041,4.134-9.222,11.676-15.552,15.351-4.537,2.635-10.394,2.845-15.108.541-1.313-.641-2.564-1.491-3.446-2.646Z"/><path class="g" d="M106.3,436.235c4.721-6.451-1.295-13.928-5.153-18.986-2.366-3.102-4.806-6.146-7.336-9.115-2.179-2.558-4.443-5.494-7.898-6.271-1.556-.35-2.755.942-2.46,2.46.305,1.573-2.456,1.886-3.394,1.926-2.021.086-4.016-.163-5.964-.699-3.29-.904-6.382-2.585-8.822-4.983-1.226-1.205-3.423-.333-3.414,1.414.011,2.231.005,4.462-.002,6.693-.007,2.336-.189,4.77.184,7.082.773,4.787,5.507,6.193,8.744,8.972,3.269,2.806,5.668,6.433,8.563,9.592,3.076,3.357,6.852,6.048,11.422,6.834,5.17.89,11.735-.224,15.218-4.515.68-.838.819-2.009,0-2.828-.703-.703-2.144-.843-2.828,0-2.551,3.142-7.352,4.091-11.193,3.509-4.004-.607-7.119-2.91-9.79-5.828-2.609-2.85-4.81-6.066-7.617-8.736-1.446-1.376-3.052-2.51-4.739-3.567-1.32-.827-2.967-1.735-3.616-3.241-.5-1.162-.345-2.602-.348-3.832-.003-1.147-.003-2.294.001-3.442.007-2.231.014-4.462.002-6.693l-3.414,1.414c3.492,3.432,8.189,5.777,13.024,6.537,2.665.419,5.701.667,8.253-.385s4.126-3.518,3.589-6.288l-2.46,2.46c2.67.6,4.457,3.275,6.133,5.242,2.205,2.589,4.352,5.229,6.421,7.927,1.896,2.473,3.952,4.964,5.392,7.741,1.242,2.395,1.735,5.282.05,7.585-.638.872-.147,2.231.718,2.736,1.014.593,2.097.157,2.736-.718Z"/><path class="g" d="M16.84,434.216c-1.631-2.229-1.232-5.047-.048-7.396,1.439-2.855,3.553-5.404,5.49-7.93,2.021-2.636,4.116-5.215,6.267-7.746,1.712-2.014,3.554-4.809,6.287-5.424l-2.46-2.46c-.515,2.656.905,5.089,3.35,6.187,2.601,1.169,5.747.917,8.492.486,4.835-.76,9.531-3.105,13.024-6.537l-3.414-1.414c-.021,4.045.156,8.12-.02,12.161-.087,2.008-1.119,3.183-2.726,4.266-1.596,1.075-3.244,2.022-4.73,3.255-5.789,4.806-9.177,13.167-16.924,15.284-4.26,1.164-9.96.484-12.899-3.137-.681-.839-2.12-.708-2.828,0-.83.83-.683,1.987,0,2.828,2.981,3.672,8.532,5.113,13.085,4.78,4.764-.349,8.906-2.471,12.291-5.788,3.069-3.008,5.432-6.647,8.488-9.667,1.545-1.527,3.274-2.632,5.087-3.805,1.723-1.115,3.467-2.439,4.357-4.348,1.199-2.574.831-5.685.825-8.451-.005-2.46-.017-4.919-.004-7.379.009-1.747-2.187-2.62-3.414-1.414-2.44,2.397-5.531,4.079-8.822,4.983-1.885.518-3.798.762-5.753.705-.946-.028-3.926-.28-3.605-1.932.295-1.519-.904-2.81-2.46-2.46-3.455.777-5.719,3.713-7.898,6.271-2.53,2.97-4.97,6.013-7.336,9.115-3.858,5.058-9.873,12.535-5.153,18.986.637.87,1.736,1.303,2.736.718.859-.502,1.359-1.86.718-2.736Z"/><path class="g" d="M20.794,125.152c.167,13.002.336,26.053,1.35,39.022.177,2.263.251,4.643.819,6.849.547,2.125,1.454,4.17,2.366,6.159,2.453,5.354,5.415,10.482,8.434,15.532,3.222,5.39,6.582,10.702,10.094,15.908l.313-2.424c-5.316,5.471-11.704,9.832-17.33,14.97h2.828c-6.044-7.299-11.375-15.231-15.8-23.613-4.297-8.14-7.857-16.899-9.216-26.051-1.268-8.537-.565-17.363.385-25.894.563-5.056,1.287-10.093,2.044-15.123.712-4.733,1.242-9.699,3.139-14.14,2.036-4.766,5.927-8.061,10.274-10.684,4.902-2.958,10.156-5.362,15.541-7.292,2.406-.862,1.368-4.729-1.063-3.857-5.076,1.819-10.03,4.027-14.733,6.67-4.187,2.353-8.207,5.157-11.104,9.047-2.986,4.01-4.25,8.958-5.073,13.809-.914,5.389-1.669,10.815-2.376,16.234-1.218,9.335-2.219,18.862-1.374,28.275.853,9.498,4.002,18.559,8.124,27.109,4.899,10.164,11.212,19.655,18.403,28.338.711.858,2.091.674,2.828,0,5.626-5.138,12.014-9.499,17.33-14.97.586-.603.809-1.688.313-2.424-6.341-9.4-12.496-19.109-17.506-29.293-.997-2.026-1.901-3.953-2.603-6.073-.251-.759-.473-1.53-.606-2.319.064.378-.036-.321-.048-.433-.033-.288-.064-.576-.094-.864-.064-.621-.123-1.243-.178-1.865-.552-6.263-.794-12.555-1.003-18.838-.241-7.253-.385-14.509-.479-21.766-.033-2.572-4.033-2.579-4,0h0Z"/><path class="i" d="M93.421,125.155c.585-8.564.54-15.668.371-22.865-.012-.49-.033-1.007-.291-1.424-.298-.483-.85-.736-1.371-.963-4.416-1.924-6.861-4.134-11.404-5.827-.202,5.494-3.043,19.444-3.504,20.108-11.23.969-37.514,1.026-38.226,0-.461-.664-3.401-13.898-3.603-19.391-4.543,1.693-6.889,3.187-11.305,5.111-.52.227-1.073.48-1.371.963-.258.417-.279.934-.291,1.424-.169,7.197-.213,14.301.371,22.865"/><path class="g" d="M95.421,125.155c.097-7.07.478-14.137.399-21.21-.018-1.641.129-3.485-1.112-4.758-1.108-1.136-2.93-1.61-4.305-2.35-3.039-1.635-5.905-3.454-9.145-4.691-1.276-.487-2.482.744-2.532,1.929-.158,3.802-.888,7.601-1.583,11.333-.335,1.799-.691,3.595-1.088,5.382-.139.624-.279,1.248-.442,1.866-.051.194-.115.386-.161.58-.086.366-.201.347.045-.063l1.727-.991c-8.88.755-17.859.819-26.766.733-3.304-.032-6.625-.065-9.916-.381-.122-.012-.243-.028-.365-.043.602.075.335.052.212.026-.155-.033-.339-.089-.496-.098-.41-.025.174.088.183.094.083.054.654.644.612.59.349.447.137.412.071.116-.318-1.411-.734-2.805-1.048-4.22-1.03-4.645-2.114-9.44-2.315-14.208-.05-1.188-1.255-2.41-2.532-1.929-3.08,1.161-6.009,2.613-8.975,4.028-1.409.672-3.263,1.156-4.375,2.297-1.242,1.274-1.093,3.121-1.114,4.763-.091,7.07.251,14.138.401,21.205.055,2.57,4.055,2.579,4,0-.136-6.375-.42-12.749-.415-19.126,0-.693.005-1.385.014-2.078.006-.451-.12-1.791-.007-1.983.085-.144,1.206-.556,1.565-.717.654-.294,1.303-.597,1.95-.905,2.653-1.266,5.265-2.586,8.02-3.625l-2.532-1.929c.254,6.036,1.635,12.228,3.115,18.07.405,1.599.752,3.019,2.544,3.465,1.782.444,3.79.398,5.612.465,6.425.238,12.869.171,19.295.017,3.232-.078,6.465-.188,9.693-.375,1.296-.075,2.847.022,4.102-.323,1.185-.326,1.486-1.5,1.752-2.534.766-2.984,1.317-6.036,1.849-9.069.604-3.44,1.226-6.938,1.371-10.434l-2.532,1.929c2.772,1.058,5.243,2.671,7.832,4.092.678.373,1.365.729,2.064,1.062.413.196,1.516.463,1.79.857-.219-.317-.087.351-.083.478.011.414.016.828.021,1.242.01.78.013,1.561.012,2.341-.01,6.361-.321,12.717-.408,19.077-.035,2.575,3.965,2.576,4,0h0Z"/><g id="f"><path class="g" d="M53.788,71.388c1.815.958,3.767,1.372,5.82,1.358,2.16-.014,4.264-.472,5.985-1.812.829-.646.729-2.159,0-2.828-.88-.807-1.944-.689-2.828,0,.691-.538-.025-.012-.243.103-.169.089-.622.23.009.016-.159.054-.312.12-.472.172-.424.136-.911.15-1.322.302.211-.078.323-.039.024-.009-.13.013-.259.024-.389.032-.313.02-.626.028-.939.026-.281-.002-.561-.011-.841-.03-.129-.009-.257-.019-.385-.032-.073-.007-.146-.015-.219-.024-.157-.019-.096-.011.183.024-.049.051-.552-.1-.633-.118-.202-.045-.403-.097-.602-.156-.173-.052-.342-.114-.512-.172-.449-.154.421.201.014.009-.212-.1-.42-.204-.627-.313-.925-.488-2.217-.265-2.736.718-.488.924-.27,2.215.718,2.736h0Z"/><path class="g" d="M58.335,58.009c.241.92.473,1.855.611,2.798l-.071-.532c.016.129.024.256.01.386l.071-.532c-.009.06-.022.116-.042.174l.202-.478c-.018.041-.037.075-.061.112l.313-.405c-.029.035-.056.062-.091.09l.405-.313c-.071.045-.145.082-.222.117l.478-.202c-.122.051-.243.088-.374.109l.532-.071c-.118.014-.233.013-.351,0l.532.071c-.132-.018-.262-.051-.394-.068-.266-.083-.532-.095-.798-.036-.266.012-.514.091-.744.237-.415.243-.811.718-.919,1.195-.117.512-.091,1.087.202,1.541.26.403.695.852,1.195.919.351.047.692.135,1.049.151.575.025,1.1-.156,1.61-.392.643-.298,1.149-.908,1.32-1.598.146-.591.087-1.065-.013-1.658-.152-.901-.361-1.795-.592-2.679-.127-.483-.49-.944-.919-1.195s-1.061-.357-1.541-.202c-.484.157-.951.457-1.195.919-.253.48-.342,1.007-.202,1.541h0Z"/><path class="g" d="M44.088,49.935c-.467,1.518-.163,5.011,2.714,5.308,3.802-.023,4.004-4.245,2.724-6.231-1.048-1.626-4.129-2.302-5.438.923Z"/><path class="g" d="M74.531,49.936c.467,1.518.163,5.011-2.713,5.308-3.802-.023-4.004-4.245-2.724-6.231,1.048-1.625,4.129-2.301,5.438.923Z"/></g></g></g></svg>